# xmcd
#
# Track frame offsets:
#	150
#	12312
#	21957
#	32389
#	50248
#	75224
#	93115
#	105811
#	119335
#	132632
#	152839
#	173302
#
# Disc length: 2550 seconds
#
# Revision: 0
# Processed by: cddbd v1.4PL0 Copyright (c) Steve Scherf et al.
# Submitted via: AudioConverter v4.01 Copyright (c) Dennis Rebentrost
#
DISCID=8009f40c
DTITLE=RICK STEFFEN - LOVE and ESCAPE
DYEAR=1996
DGENRE=Country
TTITLE0=BEGGAR'S HOLIDAY
TTITLE1=ONE MORE CHANCE
TTITLE2=ISLAND IN THE SUN
TTITLE3=GOOD TIMES
TTITLE4=OFFSHORE
TTITLE5=GIVE 'TIL IT HURTS
TTITLE6=SOMEBODY'S BABY
TTITLE7=I WISH YOU HAD ME HERE TONIGHT
TTITLE8=IT ONLY HURTS 'TIL THE NEXT TIME
TTITLE9=MISSIN' YOU THIS MORNIN
TTITLE10=SO MUCH IN LOVE
TTITLE11=IF YOU CAN'T SAY SOMETHING NICE
EXTD=
EXTT0=
EXTT1=
EXTT2=
EXTT3=
EXTT4=
EXTT5=
EXTT6=
EXTT7=
EXTT8=
EXTT9=
EXTT10=
EXTT11=
PLAYORDER=
